<?xml version="1.0"?>
<svg width="1411.7" height="425.2" xmlns="http://www.w3.org/2000/svg">

 <g>
  <title>background</title>
  <rect fill="none" id="canvas_background" height="402" width="582" y="-1" x="-1"/>
 </g>
 <g>
  <title>Layer 1</title>
  <g id="svg_1">
   <path id="svg_2" d="m1357.5,422.200012l-1303.599998,0c-29.400002,0 -53.100002,-22 -53.100002,-49.200012l0,-320.400002c0,-27.199999 23.7,-49.199998 53.100002,-49.199998l1303.599998,0c29.299927,0 53,22 53,49.199998l0,319.400002c0.099976,28.200012 -23.599976,50.200012 -53,50.200012l0,0z" fill="#FFFFFF"/>
   <path id="svg_3" d="m1400.300049,372.5c0,22.100006 -17.900024,40.100006 -40,40.100006l-1309.00005,0c-22.099998,0 -39.999999,-17.899994 -39.999999,-40.100006l0,-319.5c0,-22.1 17.900001,-40.1 39.999999,-40.1l1308.900074,0c22.099976,0 40,18 40,40.1l0.099976,319.5l0,0z" fill="#010202"/>
   <path id="svg_4" d="m963.700012,262.899994c3.700012,-0.899994 5.599976,-2.800018 5.599976,-5.600006c0,-7.5 -8.399963,-16.899994 -18.599976,-16.899994c-7.5,0 -22.400024,5.599991 -22.400024,27.100006c0,2.799988 0,6.5 1,10.299988l34.400024,-14.899994zm27.099976,48.600006l-9.299988,8.399994c-1.900024,0.899994 -4.700012,2.800018 -6.5,3.800018c-6.5,2.799988 -13.100037,3.699982 -18.600037,3.699982c-6.5,0 -15.899963,0 -25.199951,-7.5c-14,-9.299988 -19.600037,-26.199982 -19.600037,-40.199982c0,-29.900009 24.200012,-44.900009 43.799988,-44.900009c6.5,0 14,1.899994 19.600037,5.599991c9.299988,6.5 12.099976,15 13,18.700012l-44.700012,18.699982l-14.900024,0.900024c4.700012,24.299988 21.5,38.299988 39.200012,38.299988c10.100037,0.100006 16.600037,-2.700012 23.200012,-5.5c0,0 0.900024,-1 0,0" fill="#FFFFFF"/>
   <path id="svg_5" d="m896.599976,309.600006c0,7.5 0.900024,8.399994 7.5,9.300018c3.700012,0 6.5,0.899994 10.200012,0.899994l-7.5,4.699982l-33.600037,0c4.700012,-5.599976 5.600037,-6.5 5.600037,-10.299988l0,-4.700012l0,-113.999985l-14.799988,0l14,-6.5l27,0c-5.599976,2.799988 -7.5,4.699997 -8.400024,12.199997l0,108.399994z" fill="#FFFFFF"/>
   <path id="svg_6" d="m836,292.799988c4.700012,-4.700012 4.700012,-10.299988 4.700012,-14c0,-14 -8.400024,-35.5 -24.200012,-35.5c-4.700012,0 -10.299988,2.800003 -13.099976,6.5c-2.800049,3.699997 -4.600037,9.299988 -4.600037,14c0,13.100006 7.400024,34.600006 24.200012,34.600006c4.599976,0 10.200012,-2.799988 13,-5.600006m-5.5,36.400024l-4.700012,0c-1.899963,0 -12.099976,0 -20.5,2.799988c-4.700012,1.800018 -16.799988,6.5 -16.799988,19.600006c0,14 13.099976,23.399994 33.5,23.399994c18.700012,0 28,-8.399994 28,-20.5c1.900024,-9.399994 -4.599976,-15 -19.5,-25.299988m14,-85.000015c4.700012,3.699997 14,11.199997 14,26.199997c0,14 -8.400024,20.600006 -15.799988,27.100006c-2.799988,2.799988 -5.600037,5.600006 -5.600037,9.299988c0,4.700012 2.800049,6.600006 4.700012,8.400024l6.5,5.599976c8.400024,7.5 15.900024,14 15.900024,27.100006c0,17.700012 -17.700012,36.399994 -50.299988,36.399994c-28,0 -41,-13.099976 -41,-27.099976c0,-6.5 3.699951,-16.800018 14.899963,-23.400024c12.100037,-7.399994 28,-8.399994 36.299988,-8.399994c-2.799988,-3.699982 -5.599976,-7.5 -5.599976,-13.100006c0,-2.799988 0.900024,-5.599976 1.900024,-7.5l-6.5,0c-20.5,0 -31.700012,-15 -31.700012,-29.899994c0,-8.399994 3.700012,-18.699982 12.099976,-26.199997c11.200012,-9.300003 24.200012,-10.300003 34.5,-10.300003l40,0l-12.099976,6.5l-12.100037,0l0,-0.699997l-0.099976,0z" fill="#FFFFFF"/>
   <path id="svg_7" d="m749.400024,311.5c4.599976,-6.5 5.599976,-14 5.599976,-21.5c0,-16.799988 -8.399963,-49.5 -31.699951,-49.5c-6.5,0 -13.100037,2.800003 -17.700012,6.600006c-7.5,6.5 -8.400024,15 -8.400024,23.399994c0,18.700012 9.299988,50.5 32.600037,50.5c7.499939,-0.200012 14.899963,-3.899994 19.599976,-9.5m-24.300049,14.899994c-30.799988,0 -46.599976,-23.300018 -46.599976,-44.899994c0,-25.200012 20.5,-46.700012 49.399963,-46.700012c27.900024,0 45.600037,22.399994 45.600037,45.799988c1,22.500031 -16.700012,45.800018 -48.400024,45.800018" fill="#FFFFFF"/>
   <path id="svg_8" d="m647.799988,311.5c4.700012,-6.5 5.599976,-14 5.599976,-21.5c0,-16.799988 -8.399963,-49.5 -31.699951,-49.5c-6.5,0 -13.100037,2.800003 -17.700012,6.600006c-7.400024,6.5 -8.400024,15 -8.400024,23.399994c0,18.700012 9.299988,50.5 32.600037,50.5c7.5,-0.200012 14.899963,-3.899994 19.599976,-9.5m-24.200012,14.899994c-30.700012,0 -46.599976,-23.300018 -46.599976,-44.899994c0,-25.200012 20.5,-46.700012 49.399963,-46.700012c27.900024,0 45.600037,22.399994 45.600037,45.799988c0,22.500031 -17.700012,45.800018 -48.400024,45.800018" fill="#FFFFFF"/>
   <path id="svg_9" d="m564.900024,319.899994l-26.099976,5.600006c-10.300049,1.899994 -19.600037,2.799988 -29.800018,2.799988c-49.400024,0 -68,-36.399994 -68,-65.399994c0,-34.600006 27,-67.300003 72.699982,-67.300003c9.299988,0 18.600037,1.899994 28,3.699997c13,3.800003 19.600037,8.400009 23.299988,11.199997l-14.899963,14l-6.5,0.900009l4.700012,-7.5c-6.5,-5.600006 -17.700012,-16.800003 -38.200043,-16.800003c-28,0 -49.399994,21.5 -49.399994,53.300003c0,33.600006 24.200012,65.399994 63.400024,65.399994c11.200012,0 17.700012,-1.899994 22.399963,-4.700012l0,-29l-27,1.900024l14,-7.5l38.200012,0l-4.700012,4.699982c-0.899963,0.899994 -1.899963,1.899994 -1.899963,2.800018l0,8.399994l0,23.5l-0.200012,0z" fill="#FFFFFF"/>
   <path id="svg_10" d="m1107.199951,281.600006c0,-21.5 -11.199951,-38.300003 -31.699951,-38.300003c-12.100098,0 -24.200073,10.200012 -29.800049,18.699997l0,40.200012c5.599976,8.399994 16.800049,18.700012 29.800049,18.700012c20.599976,-1.000031 31.699951,-17.800018 31.699951,-39.300018m-61.5,30.799988l0,48.600006l-9.300049,0l0,-124.300003l9.300049,0l0,14c6.5,-9.300003 17.699951,-16.800003 31.699951,-16.800003c24.200073,0 40.100098,18.700012 40.100098,47.600006c0,29 -15.800049,47.700012 -40.100098,47.700012c-12.999878,0 -24.199951,-6.5 -31.699951,-16.800018" fill="#FFFFFF"/>
   <g id="svg_11">
    <path id="svg_12" d="m135.699997,162.100006c-9.599998,0 -17.399994,7.800003 -17.399994,17.400009l0,0l0,29.599991l0,13.900009l0,29.599991l0,0c0,9.600006 7.799995,17.399994 17.399994,17.399994c9.600006,0 17.400009,-7.799988 17.400009,-17.399994l0,0l0,-29.599991l0,-13.900009l0,-29.599991l0,0c0,-9.600021 -7.800003,-17.400009 -17.400009,-17.400009z" fill="#FFFFFF"/>
    <path id="svg_13" d="m357.5,179.5c0,-9.600006 -7.799988,-17.399994 -17.399994,-17.399994c-9.600006,0 -17.399994,7.799988 -17.399994,17.399994l0,0l0,29.600006l0,13.899994l0,29.600006l0,0c0,9.600006 7.799988,17.399994 17.399994,17.399994c9.600006,0 17.399994,-7.799988 17.399994,-17.399994l0,0l0,-29.600006l0,-13.899994l0,-29.600006l0,0z" fill="#FFFFFF"/>
    <path id="svg_14" d="m160.199997,165.100006l-0.899994,0l0,114.899994c0,9.600006 7.800003,17.399994 17.399994,17.399994l14.600006,0l0,10.399994l0,29.600006l0,0c0,9.600006 7.800003,17.399994 17.399994,17.399994c9.600006,0 17.400009,-7.799988 17.400009,-17.399994l0,0l0,-29.600006l0,-10.399994l23.699997,0l0,10.399994l0,29.600006c0,9.600006 7.800003,17.399994 17.400009,17.399994c9.599976,0 17.399994,-7.799988 17.399994,-17.399994l0,-29.600006l0,-10.399994l14.600006,0c9.599976,0 17.399994,-7.799988 17.399994,-17.399994l0,-114.899994l-0.300018,0l-156.099991,0z" fill="#FFFFFF"/>
    <path id="svg_15" d="m316.399994,159l0,-8.399994c-0.200012,-2.400009 -0.600006,-4.700012 -1.100006,-7c-4.299988,-20.400009 -18.5,-37.700005 -38,-47.800003l12,-22.200005c0.700012,-1.400002 0.200012,-3.099998 -1.100006,-3.799995c-1.399994,-0.700005 -3.100006,-0.200005 -3.799988,1.099998l-12.100006,22.5c-10.299988,-4.5 -21.899994,-6.900002 -34.099991,-6.900002c-12.300003,0 -24,2.5 -34.400009,7l-12.199997,-22.599998c-0.699997,-1.400002 -2.5,-1.900002 -3.800003,-1.099998c-1.399994,0.699997 -1.899994,2.5 -1.099991,3.799995l11.900009,22.400002c-18.599991,9.599998 -32.300003,25.900002 -37.199997,45.199997c-1.300003,5 -1.899994,10.199997 -1.899994,15.5c0,0.800003 0,1.600006 0,2.400009l156.899979,0l0,-0.100006zm-42.699982,-42.599998c4.100006,0 7.399994,3.299995 7.399994,7.400002c0,4.099998 -3.299988,7.399994 -7.399994,7.399994c-4.100006,0 -7.399994,-3.299995 -7.399994,-7.399994c-0.000031,-4.100006 3.299988,-7.400002 7.399994,-7.400002zm-71.500015,0c4.100006,0 7.400009,3.299995 7.400009,7.400002c0,4.099998 -3.300003,7.399994 -7.400009,7.399994c-4.099991,0 -7.399994,-3.299995 -7.399994,-7.399994c0,-4.100006 3.300003,-7.400002 7.399994,-7.400002z" fill="#FFFFFF"/>
   </g>
   <rect id="svg_16" height="124.3" width="9.3" fill="#FFFFFF" y="202.1" x="1130.6"/>
   <path id="svg_17" d="m1248.900024,353.5c1.900024,0.899994 5.599976,1.899994 7.5,1.899994c5.599976,0 10.300049,-2.799988 14,-11.199982l7.5,-15.900024l-38.199951,-90.599991l11.199951,0l32.599976,78.500015l32.599976,-78.500015l11.200073,0l-46.599976,110.300003c-4.700073,11.200012 -12.100098,16.799988 -23.300049,16.799988c-2.800049,0 -7.5,-0.899994 -9.300049,-0.899994l0.800049,-10.399994z" fill="#FFFFFF"/>
   <path id="svg_18" d="m1186.5,318.899994c8.400024,0 14,-1.899994 20.5,-5.600006c5.599976,-3.799988 10.300049,-8.399994 12.099976,-14.100006l0,-17.699982l-22.400024,0c-8.399902,0 -15.799927,1.899994 -21.399902,5.599976c-5.600098,3.800018 -8.400024,8.400024 -8.400024,14c0,4.700012 1.900024,9.400024 5.599976,12.200012c2.800049,4.700012 7.400024,5.600006 14,5.600006m34.400024,7.5c-0.900024,-2.800018 -0.900024,-5.600006 -1.900024,-8.399994l0,-7.5c-3.699951,4.699982 -8.400024,9.299988 -14,12.099976c-5.599976,2.800018 -12.099976,4.700012 -19.599976,4.700012c-9.300049,0 -16.800049,-1.899994 -22.400024,-7.5c-5.599976,-4.700012 -7.400024,-11.200012 -7.400024,-19.600006c0,-8.399994 3.700073,-15 11.200073,-19.600006c7.400024,-4.699982 17.699951,-7.5 29.799927,-7.5l22.400024,0l0,-11.199982c0,-6.5 -1.900024,-11.199997 -6.5,-15c-4.699951,-3.699997 -10.299927,-5.600006 -18.699951,-5.600006c-7.5,0 -13,1.900009 -17.700073,4.699997c-4.599976,3.700012 -6.5,7.400009 -6.5,12.099991l-10.199951,0l0,-0.899994c0,-6.599991 2.800049,-13.099991 9.300049,-17.799988c6.5,-5.599991 14.899902,-7.5 26.099976,-7.5c10.299927,0 19.599976,2.800003 25.099976,7.5c6.5,4.699997 9.300049,12.100006 9.300049,21.5l0,44.799988c0,2.800018 0,6.5 0.899902,9.300018c0,2.799988 1,5.599976 1.900024,9.299988l-11.099976,2.100006z" fill="#FFFFFF"/>
   <text font-weight="normal" xml:space="preserve" text-anchor="left" font-family="'Trebuchet MS', Gadget, sans-serif" font-size="84" id="svg_26" y="136.100006" x="447.350006" stroke-opacity="null" stroke-width="0" stroke="null" fill="#ffffff">T&#7843;i v&#7873; tr&#234;n</text>
   <text stroke="null" transform="matrix(2.826973735926231,0,0,1,-1023.5956806892789,0) " xml:space="preserve" text-anchor="left" font-family="Helvetica, Arial, sans-serif" font-size="24" id="svg_28" y="95.100006" x="559.350006" stroke-opacity="null" stroke-width="0" fill="#ffffff"/>
  </g>
 </g>
</svg>